<svg viewBox="0 0 400 400" xmlns="http://www.w3.org/2000/svg">
  <!-- White background -->
  <circle cx="200" cy="200" r="200" fill="white"/>

  <!-- Main seal with irregular edges -->
  <path d="
    M 200 20
    C 205 20, 210 22, 215 20
    A 180 180 0 0 1 380 200
    C 380 205, 378 210, 380 215
    A 180 180 0 0 1 200 380
    C 195 380, 190 378, 185 380
    A 180 180 0 0 1 20 200
    C 20 195, 22 190, 20 185
    A 180 180 0 0 1 200 20
    Z" fill="#1c00ff"/>

  <!-- Main text -->
  <text x="200" y="215" fill="white" font-family="Anton, Impact, sans-serif" font-size="72"
        text-anchor="middle" letter-spacing="2">
    ENTITL.ORG
  </text>

  <!-- Decorative stars with irregular points -->
  <g fill="white">
    <!-- Top stars -->
    <path d="M140 90 L145 98 L157 102 L147 112 L151 122 L140 115 L129 122 L133 112 L123 102 L135 98 Z"/>
    <path d="M200 75 L206 85 L218 87 L207 97 L211 107 L200 100 L189 107 L193 97 L182 87 L194 85 Z"/>
    <path d="M260 90 L265 98 L277 102 L267 112 L271 122 L260 115 L249 122 L253 112 L243 102 L255 98 Z"/>

    <!-- Bottom stars -->
    <path d="M140 280 L145 288 L157 292 L147 302 L151 312 L140 305 L129 312 L133 302 L123 292 L135 288 Z"/>
    <path d="M200 295 L206 305 L218 307 L207 317 L211 327 L200 320 L189 327 L193 317 L182 307 L194 305 Z"/>
    <path d="M260 280 L265 288 L277 292 L267 302 L271 312 L260 305 L249 312 L253 302 L243 292 L255 288 Z"/>
  </g>

  <!-- Cracks and distressing -->
  <g stroke="white" opacity="0.3">
    <!-- Major cracks -->
    <path d="M100 50 L120 70 M130 65 L110 85" stroke-width="2" fill="none"/>
    <path d="M300 50 L280 70 M270 65 L290 85" stroke-width="2" fill="none"/>
    <path d="M100 350 L120 330 M130 335 L110 315" stroke-width="2" fill="none"/>
    <path d="M300 350 L280 330 M270 335 L290 315" stroke-width="2" fill="none"/>

    <!-- Minor cracks -->
    <g stroke-width="1" fill="none">
      <path d="M200 40 L200 60"/>
      <path d="M40 200 L60 200"/>
      <path d="M340 200 L360 200"/>
      <path d="M200 340 L200 360"/>
      <path d="M150 50 Q 160 70 140 80"/>
      <path d="M250 50 Q 240 70 260 80"/>
      <path d="M150 350 Q 160 330 140 320"/>
      <path d="M250 350 Q 240 330 260 320"/>
    </g>

    <!-- Worn texture -->
    <g stroke-width="0.5" fill="none">
      <path d="M100 100 Q 120 110 110 130"/>
      <path d="M300 100 Q 280 110 290 130"/>
      <path d="M100 300 Q 120 290 110 270"/>
      <path d="M300 300 Q 280 290 290 270"/>
    </g>
  </g>
</svg>
